<?xml version="1.0" standalone="no"?>
<!DOCTYPE svg PUBLIC "-//W3C//DTD SVG 20010904//EN"
 "http://www.w3.org/TR/2001/REC-SVG-20010904/DTD/svg10.dtd">
<svg version="1.0" xmlns="http://www.w3.org/2000/svg"
 width="662.000000pt" height="647.000000pt" viewBox="0 0 662.000000 647.000000"
 preserveAspectRatio="xMidYMid meet">

<g transform="translate(0.000000,647.000000) scale(0.100000,-0.100000)"
fill="#000000" stroke="none">
<path d="M4163 6165 c-12 -8 -32 -14 -45 -14 -12 1 -31 -2 -40 -6 -11 -4 -18
-3 -18 4 0 14 -27 14 -35 0 -4 -6 3 -13 15 -16 12 -3 19 -11 16 -19 -9 -24 10
-24 42 0 27 19 39 22 76 16 25 -4 49 -3 54 2 5 5 14 2 21 -6 11 -14 16 -14 37
1 24 15 29 9 18 -21 -3 -9 -12 -16 -20 -16 -7 0 -27 -8 -44 -19 -26 -15 -28
-19 -14 -25 10 -4 21 -1 26 6 8 14 11 5 9 -23 -3 -30 41 -54 100 -54 l54 0 17
-44 c10 -25 16 -47 14 -49 -6 -6 -61 25 -94 53 -19 16 -48 28 -74 31 -46 5
-119 37 -138 59 -9 11 -7 16 10 25 11 6 18 15 15 21 -9 14 -35 11 -35 -5 0 -7
-7 -26 -15 -42 -12 -23 -15 -25 -21 -11 -4 12 -18 17 -48 17 -23 0 -51 7 -63
15 -13 9 -34 13 -59 9 -22 -2 -77 -7 -123 -10 -68 -5 -95 -12 -136 -35 -28
-16 -66 -29 -84 -29 -32 0 -40 -6 -111 -87 -12 -15 -31 -23 -50 -23 -23 0 -30
-4 -30 -19 0 -11 -4 -22 -9 -25 -14 -9 0 -60 21 -77 17 -14 19 -19 8 -39 -10
-18 -10 -21 2 -14 16 10 38 38 59 77 11 22 25 31 45 32 16 2 48 8 72 15 57 17
70 5 55 -50 -12 -46 -4 -58 21 -31 21 23 62 16 71 -12 6 -18 9 -14 16 22 13
68 11 67 167 60 27 -1 39 -40 23 -75 -15 -33 -6 -46 23 -34 13 5 33 6 45 3 14
-4 23 0 27 13 14 37 37 54 75 54 21 0 44 -6 51 -12 7 -7 19 -13 27 -13 8 0 20
-16 26 -35 10 -30 16 -35 39 -32 14 2 34 -1 43 -7 13 -7 20 -2 32 23 10 18 25
32 39 34 25 4 28 -12 13 -65 -5 -19 -6 -35 -1 -38 10 -6 30 57 30 94 0 22 2
23 45 17 25 -3 54 -10 65 -16 18 -10 18 -13 5 -51 -8 -23 -15 -45 -15 -50 0
-12 37 -11 45 1 10 17 25 11 25 -9 0 -11 6 -26 13 -33 7 -7 16 -22 20 -32 4
-10 10 -16 13 -13 3 3 1 15 -5 26 -10 18 -7 22 18 36 l30 15 -10 -33 c-14 -48
-11 -57 13 -54 15 1 23 -4 26 -18 6 -29 17 -37 59 -44 31 -5 44 -15 75 -60 23
-33 36 -62 33 -72 -5 -14 1 -17 30 -17 39 0 86 -34 126 -92 33 -48 33 -50 10
-50 -18 0 -107 65 -173 126 -13 12 -24 13 -51 6 -33 -9 -36 -8 -47 18 -14 34
-67 85 -97 95 -13 3 -23 11 -23 16 0 5 -5 9 -11 9 -6 0 -9 -6 -6 -14 3 -8 0
-20 -8 -26 -10 -8 -18 -6 -34 11 -17 18 -21 20 -21 6 0 -31 -19 -27 -36 8 -9
20 -29 42 -44 50 -14 7 -32 21 -39 29 -17 20 -31 20 -31 1 0 -8 -7 -15 -15
-15 -9 0 -15 9 -15 21 0 16 -5 20 -22 17 -13 -2 -22 -9 -20 -17 4 -19 -16 -40
-36 -36 -11 1 -16 10 -15 24 3 27 -18 27 -35 1 -14 -23 -37 -17 -28 6 4 9 -4
18 -20 24 -36 14 -39 13 -52 -15 -15 -33 -15 -65 -1 -65 18 0 4 -65 -21 -101
-17 -23 -25 -27 -35 -19 -15 13 -11 59 11 129 17 52 9 111 -15 111 -12 0 -16
-9 -15 -39 0 -22 6 -46 12 -54 9 -11 6 -18 -17 -35 -22 -16 -30 -31 -35 -71
-4 -27 -13 -65 -20 -83 -22 -52 -29 -98 -16 -98 12 0 14 4 31 88 8 37 18 62
26 62 7 0 13 -6 13 -12 0 -7 3 -23 6 -35 4 -14 -1 -27 -14 -39 -16 -13 -19
-22 -11 -36 6 -10 18 -17 27 -16 14 2 16 -4 14 -32 -2 -19 -11 -53 -19 -75 -8
-22 -19 -58 -24 -80 -8 -33 -14 -40 -34 -40 -14 0 -27 7 -29 15 -8 27 9 105
22 105 6 0 12 3 12 8 0 56 -1 61 -9 48 -6 -9 -11 -10 -15 -2 -17 27 -25 -6
-25 -106 0 -90 -3 -110 -17 -120 -10 -7 -15 -16 -11 -19 4 -4 13 -1 21 5 25
21 36 -19 36 -131 0 -72 -5 -112 -15 -132 -18 -35 -18 -36 0 -36 8 0 18 12 22
28 10 33 9 244 -1 292 -5 27 -5 31 4 18 6 -9 17 -15 24 -12 9 4 16 -7 21 -33
12 -63 13 -244 1 -297 -12 -54 -36 -75 -36 -32 l0 27 -30 -23 c-39 -28 -57
-14 -35 28 11 23 13 45 7 90 l-7 59 -21 -33 -21 -33 -1 83 c-1 46 -5 107 -8
136 -4 34 -3 52 4 52 6 0 14 -5 17 -10 5 -8 11 -7 21 1 19 16 13 34 -12 34
-15 0 -20 9 -25 40 -3 22 -7 30 -8 18 -2 -36 -23 -74 -38 -69 -19 8 -16 -5 5
-20 15 -11 17 -31 17 -166 0 -84 3 -155 7 -158 16 -13 13 -54 -4 -58 -10 -2
-18 2 -18 10 0 7 -5 20 -10 28 -8 12 -14 10 -39 -17 -16 -18 -39 -33 -50 -33
-12 0 -21 -5 -21 -11 0 -8 16 -9 50 -5 65 9 288 -28 349 -58 37 -17 45 -26 47
-51 1 -16 0 -38 -3 -48 -7 -28 -59 -49 -116 -46 -29 2 -72 1 -97 0 -37 -3 -22
-8 90 -30 125 -24 135 -28 138 -49 2 -13 -4 -32 -13 -42 -12 -13 -15 -27 -10
-54 7 -33 5 -36 -16 -36 -13 1 -42 7 -64 15 -60 22 -98 19 -125 -9 -32 -36
-21 -56 25 -46 32 7 35 6 30 -11 -4 -12 -1 -21 9 -25 9 -3 16 -12 16 -20 0 -8
10 -14 23 -14 12 0 40 -12 62 -25 26 -16 55 -25 82 -25 62 0 90 -15 110 -57
12 -25 26 -39 41 -41 16 -3 22 -10 22 -28 0 -35 -17 -64 -39 -64 -10 0 -26 -9
-37 -21 -18 -20 -25 -21 -134 -14 -160 9 -260 -11 -367 -75 -43 -25 -42 -17 3
25 20 19 33 38 30 43 -8 13 30 45 99 83 57 32 115 79 115 95 0 4 -25 4 -55 1
-88 -9 -385 -151 -385 -184 0 -7 -4 -13 -9 -13 -15 0 -33 -67 -33 -119 0 -62
17 -123 43 -152 l22 -24 -7 71 c-4 55 -3 74 8 83 11 9 19 1 40 -41 40 -81 206
-262 223 -244 4 3 -25 39 -64 79 -97 100 -130 166 -77 153 15 -4 32 -2 40 5 7
6 19 9 26 7 7 -3 40 10 74 29 71 39 109 44 99 13 -11 -35 5 -76 46 -121 29
-31 36 -45 27 -51 -7 -4 -19 -6 -26 -3 -7 3 -43 10 -79 15 -37 6 -71 14 -77
17 -6 4 -5 -1 3 -10 17 -21 125 -73 189 -92 26 -7 74 -16 107 -20 65 -8 90
-17 118 -46 39 -41 39 -63 -4 -148 -22 -45 -44 -81 -48 -81 -5 0 -18 -20 -29
-44 -12 -24 -35 -65 -51 -91 -16 -26 -33 -61 -37 -79 -10 -46 -33 -86 -49 -86
-9 0 -21 -11 -27 -25 -6 -14 -16 -25 -21 -25 -6 0 -27 -18 -48 -41 -40 -43
-58 -48 -197 -52 -41 -2 -53 -6 -58 -20 -4 -13 -11 -16 -22 -11 -54 22 -150
54 -164 54 -10 0 -18 -7 -18 -15 0 -20 -13 -19 -40 5 -24 21 -49 17 -31 -4 13
-16 4 -27 -15 -19 -10 4 -14 -3 -14 -22 0 -15 -4 -24 -10 -20 -5 3 -10 14 -10
24 0 10 -7 24 -15 31 -12 10 -16 9 -21 -3 -10 -28 28 -66 86 -84 30 -9 62 -22
70 -28 8 -6 32 -18 53 -28 40 -18 45 -28 24 -46 -15 -12 -103 -1 -163 21 -27
10 -46 9 -96 -2 -70 -15 -104 -15 -163 -1 -22 5 -53 13 -68 16 -17 3 -25 10
-21 17 5 8 -5 9 -34 5 -51 -9 -72 -1 -72 27 0 25 36 53 43 33 3 -9 7 -9 18 -1
19 16 246 29 263 15 17 -14 56 -3 49 15 -3 8 -11 14 -18 14 -8 0 -11 8 -8 19
5 20 -18 42 -25 23 -2 -7 -15 -12 -30 -12 -14 0 -33 -7 -43 -16 -16 -14 -20
-14 -41 0 -21 14 -26 14 -45 1 -19 -13 -26 -13 -62 3 -23 11 -39 21 -36 23 9
9 -121 1 -163 -10 -29 -8 -46 -19 -51 -34 -5 -13 -17 -29 -27 -37 -12 -10 -15
-11 -10 -2 4 7 5 31 1 54 -10 56 -23 30 -18 -35 9 -116 -30 19 -57 198 -6 39
-8 43 -10 20 -3 -37 -18 58 -18 120 -1 33 1 36 9 20 11 -22 10 -22 -21 165
-25 147 -25 253 1 415 29 183 26 174 57 180 15 4 50 17 78 30 27 14 61 26 74
27 22 3 24 0 21 -38 -2 -32 3 -48 26 -75 38 -47 42 -49 91 -49 36 0 48 5 73
32 16 18 29 40 29 50 0 23 13 23 34 -1 14 -15 15 -24 7 -40 -14 -25 -14 -31
-1 -31 6 0 10 9 10 20 0 19 10 24 38 21 17 -3 2 27 -27 53 -25 23 -29 46 -3
24 20 -18 72 -29 72 -16 0 5 -10 13 -22 17 -13 5 -35 23 -50 39 -32 35 -132
84 -162 80 -16 -3 -10 -8 27 -25 59 -27 62 -44 5 -31 -66 15 -249 15 -275 0
-29 -16 -31 1 -5 32 17 21 17 21 -5 2 -13 -11 -23 -25 -23 -33 0 -7 -4 -13 -9
-13 -5 0 -13 -10 -16 -21 -13 -39 -36 3 -48 85 -8 57 -8 100 1 169 51 394 51
393 154 447 96 50 117 67 99 79 -10 7 -18 5 -25 -4 -6 -7 -29 -20 -51 -30 -22
-9 -47 -21 -55 -26 -8 -5 -33 -18 -55 -30 -22 -11 -58 -31 -80 -44 -22 -14
-56 -32 -75 -41 -84 -39 -158 -129 -215 -264 -11 -25 -37 -75 -57 -112 -38
-67 -47 -95 -28 -83 7 4 8 -3 4 -22 -9 -37 -14 -42 -14 -12 -1 54 -17 -10 -29
-111 -14 -117 -26 -174 -46 -204 -8 -12 -22 -52 -32 -91 -17 -62 -18 -96 -13
-288 4 -177 8 -220 20 -227 9 -6 10 -10 3 -10 -8 0 -10 -16 -7 -52 2 -29 9
-111 14 -183 6 -71 14 -168 19 -215 8 -69 6 -106 -10 -198 -10 -63 -19 -133
-19 -155 -1 -23 -9 -65 -19 -94 -10 -30 -14 -58 -9 -65 12 -19 10 -76 -4 -98
-10 -15 -9 -24 2 -45 13 -24 11 -32 -23 -98 -20 -40 -37 -77 -37 -84 0 -6 -22
-44 -48 -85 -99 -149 -111 -171 -123 -207 -12 -40 -92 -222 -180 -412 -33 -70
-59 -131 -59 -136 0 -6 -16 -40 -36 -77 -26 -49 -34 -77 -32 -104 3 -35 5 -33
37 51 30 76 58 117 82 117 3 0 -16 -42 -42 -93 -27 -50 -49 -100 -49 -111 0
-22 44 -59 82 -67 34 -8 47 6 85 86 25 53 28 57 31 33 2 -14 -6 -44 -17 -65
-10 -22 -22 -55 -26 -74 -8 -41 13 -65 63 -75 27 -5 32 -4 32 12 0 19 26 95
50 147 13 27 34 39 24 13 -8 -20 -32 -140 -29 -144 6 -7 123 55 172 91 21 16
66 47 101 70 34 23 126 85 205 138 78 53 183 122 232 154 50 32 111 73 136 92
l46 35 -3 76 c-2 43 -7 115 -13 162 -7 65 -6 108 4 179 8 52 12 98 9 102 -6
11 14 49 25 49 10 0 16 -33 30 -155 5 -44 17 -101 26 -127 18 -50 42 -69 52
-40 23 65 34 82 51 82 10 0 24 -10 30 -22 6 -13 11 -17 11 -10 1 7 -3 21 -8
31 -6 10 -6 23 -1 31 7 11 13 9 29 -11 19 -23 28 -80 22 -146 -2 -28 15 -30
22 -3 6 23 20 26 39 7 7 -7 21 -16 32 -20 13 -5 17 -13 12 -32 -4 -14 -2 -25
4 -25 5 0 13 -1 17 -2 5 -2 8 4 9 12 2 35 5 40 19 40 9 0 15 -10 15 -26 0 -18
6 -28 20 -31 12 -3 19 -12 18 -21 -4 -23 33 -28 49 -6 11 15 17 16 39 5 20 -9
30 -9 40 0 10 8 17 7 30 -5 9 -9 24 -14 33 -12 22 7 61 -27 61 -54 0 -20 3
-19 46 12 26 18 57 49 71 68 13 19 37 53 53 75 16 22 29 46 30 53 0 7 11 17
25 22 22 8 25 15 25 63 0 56 22 102 45 93 23 -8 41 22 27 45 -7 10 -12 22 -12
27 0 4 50 14 112 20 61 7 152 22 200 34 81 20 90 20 105 6 24 -25 9 -129 -24
-164 -18 -19 -21 -29 -12 -34 9 -6 2 -27 -25 -82 -20 -40 -36 -79 -36 -86 0
-8 -10 -22 -22 -31 l-21 -18 22 -36 c21 -34 22 -39 7 -67 -8 -17 -22 -55 -30
-84 -13 -43 -21 -55 -41 -60 -28 -7 -34 -36 -11 -55 21 -17 30 -128 17 -192
-6 -30 -12 -95 -13 -144 -1 -50 -5 -98 -10 -108 -6 -11 -6 -29 0 -47 13 -36
-13 -113 -42 -126 -30 -14 -30 -30 1 -58 36 -33 41 -33 58 6 13 32 63 78 84
78 6 0 17 13 26 29 15 31 82 91 100 91 12 0 29 43 40 100 10 48 108 160 141
160 18 0 24 5 24 21 0 15 5 19 15 15 9 -3 15 0 15 8 0 8 5 16 10 18 6 2 12 21
14 43 2 22 4 42 5 44 1 2 8 -2 16 -9 8 -7 15 -9 15 -4 0 5 5 1 11 -8 16 -28
31 -21 24 11 -8 39 3 81 21 74 9 -3 14 1 14 12 0 11 5 15 15 11 17 -6 19 3 5
38 -8 21 -6 27 11 37 18 9 28 6 63 -20 65 -50 188 -121 218 -128 15 -3 33 -12
39 -19 6 -8 30 -14 54 -14 37 0 47 5 83 44 22 23 43 54 47 67 4 13 19 36 34
50 14 15 34 38 44 53 10 14 41 38 68 52 35 17 55 35 64 57 13 30 51 64 68 59
4 -1 7 7 7 17 0 11 4 21 10 23 5 2 -4 45 -21 98 -23 69 -34 125 -39 205 -4 61
-15 130 -24 154 -9 24 -16 45 -16 47 0 2 17 12 37 21 50 24 57 46 11 38 -46
-9 -55 5 -64 97 -6 74 -6 77 14 71 17 -4 20 -1 15 15 -7 27 29 46 70 38 51
-10 138 -56 222 -116 103 -74 185 -124 191 -117 3 3 -3 18 -15 34 -32 44 -47
116 -35 162 8 29 6 88 -6 226 l-16 187 -40 36 c-23 21 -61 55 -85 77 -25 22
-84 78 -132 124 -79 76 -88 82 -94 63 -8 -32 -25 -27 -52 15 -27 42 -41 123
-22 123 23 0 51 -21 65 -48 24 -44 178 -193 284 -275 l37 -28 7 27 c6 22 1 34
-25 64 -71 81 -76 90 -75 123 1 18 -6 46 -15 62 -75 143 -82 193 -43 328 106
370 195 870 172 961 -9 35 -22 26 -30 -21 -4 -21 -16 -75 -28 -121 -11 -46
-18 -85 -16 -88 3 -2 15 35 28 83 13 49 25 83 27 76 3 -7 -5 -67 -15 -135 -11
-68 -23 -148 -27 -178 -9 -82 -35 -188 -48 -203 -24 -24 -37 -68 -48 -159 -6
-51 -20 -127 -31 -168 -11 -41 -25 -97 -30 -125 -6 -27 -22 -76 -36 -107 -25
-56 -27 -58 -65 -58 -32 0 -38 3 -33 16 9 24 -12 44 -45 44 -22 0 -32 6 -39
25 -5 13 -20 41 -34 62 -13 21 -27 52 -30 68 -6 28 17 278 45 495 6 47 28 159
50 250 21 91 45 210 53 264 15 106 14 116 -38 191 -11 17 -11 34 0 110 26 168
-8 369 -87 514 -16 30 -27 56 -25 58 2 2 18 -8 35 -22 41 -35 41 -16 1 75 -16
38 -30 73 -30 78 0 5 -18 44 -40 87 -22 43 -40 86 -40 96 0 10 -13 53 -29 96
-45 124 -72 204 -88 262 -8 30 -25 69 -39 86 -23 30 -33 85 -16 85 4 0 18 -7
31 -16 23 -16 23 -16 16 7 -15 49 -34 89 -42 89 -5 0 -14 -5 -21 -12 -8 -8
-12 -9 -12 -1 0 6 -16 21 -35 33 -27 17 -35 28 -35 51 0 34 -16 69 -30 69 -6
0 -8 -10 -7 -22 2 -12 -5 -37 -15 -54 -16 -27 -17 -36 -7 -53 10 -15 10 -25 1
-45 l-11 -25 -43 19 c-24 11 -51 20 -60 20 -22 0 -23 23 -3 54 13 20 14 25 1
35 -19 16 -31 -3 -27 -41 3 -31 -23 -50 -54 -37 -11 4 -33 8 -50 8 -16 1 -37
6 -45 11 -13 9 -10 14 15 35 36 30 31 31 -27 5 -40 -17 -50 -18 -88 -7 -54 16
-65 37 -18 37 37 0 92 29 107 58 6 11 20 22 31 25 19 5 20 2 14 -29 -5 -26 -2
-35 11 -40 28 -11 65 12 65 41 0 29 16 32 42 8 17 -16 20 -16 36 0 23 24 6 48
-44 63 -21 7 -61 23 -89 37 -71 35 -308 117 -339 117 -14 0 -26 5 -26 10 0 17
-142 12 -167 -5z m203 -134 c1 -26 -1 -31 -15 -25 -9 4 -28 7 -43 6 -20 -1
-28 4 -28 15 0 9 3 13 6 10 4 -3 18 3 32 14 33 25 46 20 48 -20z m181 -67
l-25 -24 -5 26 c-3 16 2 34 11 45 15 18 16 17 30 -2 12 -18 11 -23 -11 -45z
m-59 -1 c-8 -10 -18 -27 -22 -38 -6 -16 -9 -17 -16 -5 -15 24 -11 40 9 40 10
0 22 7 25 16 4 9 9 14 13 10 3 -3 -1 -14 -9 -23z m546 -175 c31 -27 46 -85 24
-93 -8 -3 -35 6 -60 20 -47 26 -48 30 -32 83 6 19 40 14 68 -10z m-828 -362
c-4 -22 -2 -36 5 -38 14 -5 -10 -84 -52 -174 -34 -71 -35 -76 -11 -72 12 2 16
-3 14 -17 -5 -26 -21 -45 -39 -45 -8 0 -13 -7 -11 -17 2 -11 11 -17 21 -15 15
3 17 -3 12 -40 -11 -79 -14 -88 -30 -82 -10 4 -15 0 -15 -15 0 -15 5 -21 18
-19 16 3 17 -11 17 -174 0 -98 -3 -178 -7 -178 -5 0 -8 10 -8 23 0 35 -12 41
-33 15 l-19 -23 8 25 c4 14 10 140 14 280 7 253 18 345 44 385 7 11 16 38 19
60 6 46 28 124 40 143 14 22 19 13 13 -22z m46 -96 c-9 -25 -7 -33 15 -56 l25
-28 -16 -53 c-17 -52 -67 -123 -88 -123 -9 0 -2 99 8 109 10 11 18 -13 16 -45
-3 -39 12 -39 22 1 4 15 -1 40 -10 62 -20 46 -19 69 7 119 10 21 20 47 20 59
1 17 2 17 6 2 3 -10 0 -31 -5 -47z m199 -90 c-8 -21 -10 -16 -10 31 -1 31 2
59 7 63 11 12 14 -67 3 -94z m-101 51 c0 -6 -4 -13 -10 -16 -5 -3 -10 -22 -10
-41 0 -20 -4 -44 -10 -54 -5 -10 -12 -60 -15 -110 -3 -51 -12 -103 -20 -118
-14 -26 -14 -24 -15 40 0 37 4 77 9 90 5 13 14 48 20 78 21 100 33 140 42 140
5 0 9 -4 9 -9z m156 -37 c-4 -9 -9 -15 -11 -12 -3 3 -3 13 1 22 4 9 9 15 11
12 3 -3 3 -13 -1 -22z m82 -144 c3 -39 2 -42 -12 -31 -19 16 -22 85 -3 79 6
-3 13 -24 15 -48z m535 10 c22 -22 38 -43 35 -46 -7 -6 -117 68 -118 79 -1 21
47 2 83 -33z m-643 8 c0 -16 -3 -19 -11 -11 -6 6 -8 16 -5 22 11 17 16 13 16
-11z m-12 -93 c-6 -14 -13 -23 -15 -21 -5 5 15 46 22 46 3 0 -1 -11 -7 -25z
m-268 -6 c0 -5 -4 -9 -10 -9 -5 0 -10 7 -10 16 0 8 5 12 10 9 6 -3 10 -10 10
-16z m192 -5 c-3 -17 -8 -22 -15 -15 -7 7 -6 15 3 26 17 20 18 19 12 -11z m32
-11 c-8 -33 -22 -52 -19 -26 3 21 15 53 21 53 3 0 1 -12 -2 -27z m-181 -16 c9
8 9 -30 1 -51 -3 -9 -10 -13 -15 -10 -6 3 -17 0 -25 -7 -20 -17 -30 -4 -17 24
6 12 14 30 17 41 5 14 9 16 20 7 7 -6 16 -8 19 -4z m993 -9 l19 -21 -27 18
c-29 18 -34 25 -20 25 5 0 17 -10 28 -22z m-932 -157 c8 -25 8 -89 0 -166 -4
-38 -7 -78 -8 -87 0 -9 -5 -14 -10 -11 -5 4 -7 -1 -3 -11 6 -14 3 -15 -13 -6
-23 12 -24 19 -10 54 13 35 17 109 11 187 -6 59 -4 65 11 61 10 -2 20 -12 22
-21z m53 -138 c-3 -10 -5 -4 -5 12 0 17 2 24 5 18 2 -7 2 -21 0 -30z m163 1
c0 -8 -5 -12 -10 -9 -6 4 -8 11 -5 16 9 14 15 11 15 -7z m-596 -30 c3 -8 2
-12 -4 -9 -6 3 -10 10 -10 16 0 14 7 11 14 -7z m253 -16 c-3 -8 -6 -5 -6 6 -1
11 2 17 5 13 3 -3 4 -12 1 -19z m184 -17 c7 11 9 11 9 1 0 -7 -7 -20 -15 -28
-13 -14 -15 -11 -14 23 1 26 3 30 6 14 4 -19 7 -21 14 -10z m150 -32 c-9 -23
-10 -22 -10 11 -1 23 2 31 9 24 7 -7 7 -19 1 -35z m-21 -99 c-18 -33 -25 -15
-9 22 9 23 15 28 17 16 2 -9 -2 -27 -8 -38z m-218 8 c-7 -7 -12 -8 -12 -2 0 6
3 14 7 17 3 4 9 5 12 2 2 -3 -1 -11 -7 -17z m-109 -817 c8 -8 6 -11 -5 -11 -9
0 -19 -7 -22 -15 -5 -13 -21 -16 -83 -14 -98 3 -131 -4 -202 -47 -31 -18 -71
-37 -90 -40 -28 -6 -33 -4 -30 11 3 11 13 19 29 19 14 1 52 20 86 43 83 57
142 74 233 69 40 -3 78 -9 84 -15z m-1123 -1 c8 -5 11 -12 8 -16 -10 -9 -38 3
-38 16 0 12 10 13 30 0z m1081 -123 c-1 -12 -15 -9 -19 4 -3 6 1 10 8 8 6 -3
11 -8 11 -12z m161 -67 c-5 -34 -6 -35 -44 -44 l-28 -6 25 36 c14 20 25 43 25
52 0 11 3 12 13 3 8 -6 12 -23 9 -41z m-235 -116 c-3 -3 -12 -4 -19 -1 -8 3
-5 6 6 6 11 1 17 -2 13 -5z m43 -4 c0 -5 -4 -10 -9 -10 -6 0 -13 5 -16 10 -3
6 1 10 9 10 9 0 16 -4 16 -10z m1605 -719 c3 -7 4 -16 1 -18 -5 -5 -46 38 -46
49 0 12 39 -14 45 -31z m-2855 -182 c0 -11 -4 -17 -10 -14 -5 3 -10 15 -10 26
0 11 5 17 10 14 6 -3 10 -15 10 -26z m251 -64 c30 -9 101 -32 159 -50 77 -25
126 -35 179 -36 57 -1 78 -6 92 -20 25 -25 24 -44 -5 -66 -22 -17 -22 -20 -8
-30 13 -9 14 -14 5 -24 -14 -14 -348 -20 -395 -6 -39 10 -37 -15 3 -56 18 -17
27 -33 20 -35 -21 -7 -11 -22 27 -38 59 -26 241 -84 262 -84 10 0 22 -4 25
-10 3 -5 21 -10 38 -10 26 0 37 -7 50 -30 l18 -29 -43 -28 c-71 -46 -93 -51
-162 -35 -71 16 -95 18 -117 8 -12 -5 -18 -1 -22 13 -3 13 -13 21 -26 21 -29
0 -71 21 -71 36 0 6 -6 14 -14 17 -8 3 -22 30 -31 59 -10 29 -20 59 -23 66 -2
7 5 12 21 12 25 0 25 0 10 31 -8 17 -25 34 -37 39 -11 5 -29 19 -39 32 -9 13
-29 38 -44 57 -24 30 -27 42 -26 100 3 127 1 124 54 118 26 -3 71 -13 100 -22z
m719 -119 c0 -3 -4 -8 -10 -11 -5 -3 -10 -1 -10 4 0 6 5 11 10 11 6 0 10 -2
10 -4z m-1625 -606 c-4 -12 -2 -20 5 -20 17 0 3 -52 -17 -67 -9 -7 -20 -13
-25 -13 -11 0 -10 26 1 48 5 9 14 29 20 45 12 31 26 37 16 7z m5 -167 c0 -8
-6 -29 -14 -48 -8 -18 -17 -60 -21 -92 -12 -119 -16 -143 -24 -138 -10 6 -3
188 9 235 5 19 12 48 15 65 6 29 7 29 21 11 8 -11 14 -26 14 -33z m960 -273
c-18 -11 -24 -6 -16 16 5 14 9 15 19 5 9 -9 9 -14 -3 -21z m80 -27 c0 -20 -24
-11 -28 10 -2 12 1 15 12 11 9 -3 16 -13 16 -21z m-1317 -38 c-3 -9 -8 -14
-10 -11 -3 3 -2 9 2 15 9 16 15 13 8 -4z m230 -77 c-7 -16 -18 -28 -24 -28 -5
0 -3 13 6 30 8 16 15 37 16 47 0 16 1 16 8 -2 5 -12 3 -30 -6 -47z m-287 -84
c-4 -9 -9 -15 -11 -12 -3 3 -3 13 1 22 4 9 9 15 11 12 3 -3 3 -13 -1 -22z
m218 -56 c-10 -18 -19 -27 -22 -20 -4 14 26 67 35 59 2 -3 -3 -20 -13 -39z
m-220 -3 c-4 -8 -8 -15 -10 -15 -2 0 -4 7 -4 15 0 8 4 15 10 15 5 0 7 -7 4
-15z"/>
<path d="M4230 5255 c0 -8 5 -15 10 -15 6 0 10 7 10 15 0 8 -4 15 -10 15 -5 0
-10 -7 -10 -15z"/>
<path d="M3883 6137 c-18 -6 -33 -15 -33 -20 0 -9 26 -6 77 9 16 4 23 1 28
-15 7 -22 20 -27 29 -12 3 5 16 7 28 3 14 -3 19 -2 14 6 -4 7 -14 12 -23 12
-13 0 -13 3 -3 15 11 13 6 15 -36 14 -27 -1 -64 -7 -81 -12z"/>
<path d="M3289 5771 c-52 -33 -119 -101 -100 -101 7 0 35 16 61 35 26 19 54
35 63 35 8 0 25 9 38 20 21 17 22 21 9 30 -21 14 -21 14 -71 -19z"/>
<path d="M3812 5763 c-20 -52 -24 -73 -13 -73 6 0 13 10 15 23 3 12 7 34 11
50 3 15 4 27 1 27 -2 0 -8 -12 -14 -27z"/>
<path d="M3877 5716 c-5 -15 -6 -31 -3 -34 8 -8 18 25 14 45 -3 13 -6 10 -11
-11z"/>
<path d="M4457 5663 c-11 -10 -8 -43 3 -43 6 0 10 11 10 25 0 26 -2 29 -13 18z"/>
<path d="M3718 5593 c7 -3 16 -2 19 1 4 3 -2 6 -13 5 -11 0 -14 -3 -6 -6z"/>
<path d="M3846 5553 c-16 -22 -17 -27 -4 -39 13 -13 18 -11 41 12 28 28 28 39
-1 46 -11 3 -25 -4 -36 -19z"/>
<path d="M4023 5573 c-8 -3 -11 -14 -7 -27 4 -16 -2 -32 -19 -52 -40 -48 -51
-76 -52 -130 -1 -59 -42 -152 -88 -201 -17 -18 -28 -35 -26 -38 3 -2 22 -2 42
2 34 5 37 8 37 39 0 19 4 34 8 34 4 0 17 35 27 77 11 42 29 91 41 109 12 17
25 43 29 55 5 13 15 34 23 47 18 27 24 92 8 91 -6 0 -17 -3 -23 -6z"/>
<path d="M3701 5551 c-6 -11 -11 -24 -11 -30 0 -20 17 -11 28 14 14 29 -2 44
-17 16z"/>
<path d="M3772 5537 c-17 -20 -12 -40 6 -28 8 5 12 16 10 26 -3 17 -4 17 -16
2z"/>
<path d="M3926 5518 c-20 -39 -21 -38 9 -38 22 0 25 4 25 35 0 43 -14 45 -34
3z"/>
<path d="M3637 5476 c-9 -13 -28 -36 -42 -52 -58 -62 -4 -44 58 20 20 22 37
43 37 48 0 18 -39 7 -53 -16z"/>
<path d="M3871 5411 c-37 -72 -40 -97 -7 -56 24 30 52 103 42 112 -2 3 -18
-22 -35 -56z"/>
<path d="M3806 5422 c-13 -22 -35 -48 -48 -58 -28 -23 -58 -64 -58 -80 0 -16
33 -23 54 -12 9 5 16 21 15 36 l-1 27 -10 -27 c-8 -23 -28 -40 -28 -23 0 14
25 55 34 55 10 0 27 24 63 89 23 41 6 35 -21 -7z"/>
<path d="M3710 5405 c0 -8 5 -15 10 -15 6 0 10 7 10 15 0 8 -4 15 -10 15 -5 0
-10 -7 -10 -15z"/>
<path d="M3532 5386 c-15 -33 -11 -44 7 -22 7 8 11 23 9 32 -2 14 -6 11 -16
-10z"/>
<path d="M3545 5297 c-8 -20 -15 -39 -15 -42 0 -3 -8 -18 -17 -32 -17 -25 -42
-89 -43 -105 0 -3 14 0 30 9 17 8 28 19 25 24 -3 4 5 45 19 91 27 85 27 117 1
55z"/>
<path d="M3825 5298 c-20 -58 -41 -184 -40 -233 3 -100 5 -115 14 -115 15 0
18 31 12 120 -4 55 -1 104 7 140 8 30 16 65 19 78 6 23 -4 31 -12 10z"/>
<path d="M3483 5288 c-6 -7 -13 -22 -16 -33 -6 -17 -4 -17 13 4 11 13 20 27
20 32 0 12 -6 11 -17 -3z"/>
<path d="M3631 5284 c0 -11 3 -14 6 -6 3 7 2 16 -1 19 -3 4 -6 -2 -5 -13z"/>
<path d="M3715 5193 c-4 -21 -18 -69 -32 -108 -34 -95 -35 -109 0 -113 15 -2
25 -7 22 -12 -3 -5 1 -21 10 -34 13 -19 17 -51 17 -135 0 -107 -10 -150 -33
-135 -5 3 -9 -7 -9 -23 l1 -28 23 27 c33 37 43 147 26 272 -7 50 -13 144 -13
209 0 64 -2 117 -3 117 -2 0 -6 -17 -9 -37z"/>
<path d="M3616 5157 c3 -10 9 -15 12 -12 3 3 0 11 -7 18 -10 9 -11 8 -5 -6z"/>
<path d="M3432 5068 c2 -77 7 -101 21 -115 17 -17 17 -16 11 17 -4 19 -10 44
-14 55 -4 11 -4 32 1 48 5 18 3 38 -7 60 -14 30 -14 27 -12 -65z"/>
<path d="M3303 5088 c-15 -19 -34 -58 -29 -58 8 0 48 61 44 66 -3 2 -10 -1
-15 -8z"/>
<path d="M4037 5084 c-4 -4 -7 -14 -7 -23 0 -11 3 -12 11 -4 6 6 10 16 7 23
-2 6 -7 8 -11 4z"/>
<path d="M3326 5028 c3 -13 13 -30 20 -39 22 -25 34 -112 34 -250 0 -74 4
-130 10 -134 16 -10 12 249 -5 327 -14 66 -39 118 -57 118 -5 0 -6 -10 -2 -22z"/>
<path d="M3616 4980 c4 -19 8 -111 10 -205 3 -226 1 -215 33 -215 14 0 35 -3
46 -5 15 -4 25 2 38 26 23 41 15 48 -17 14 -16 -17 -33 -25 -48 -23 -23 3 -23
4 -28 198 -5 167 -9 199 -24 220 l-18 25 8 -35z"/>
<path d="M3230 4977 c-14 -12 -39 -32 -55 -45 -29 -22 -20 -19 37 14 16 10 55
55 46 54 -2 0 -14 -11 -28 -23z"/>
<path d="M3161 4783 c-7 -60 -14 -123 -16 -141 -2 -18 1 -45 8 -60 9 -23 12
-10 18 93 3 66 10 141 14 168 4 29 4 47 -2 47 -6 0 -15 -48 -22 -107z"/>
<path d="M3940 4775 c0 -8 5 -15 10 -15 6 0 10 7 10 15 0 8 -4 15 -10 15 -5 0
-10 -7 -10 -15z"/>
<path d="M3676 4725 c-4 -14 -2 -33 3 -43 8 -13 10 -8 11 26 0 48 -5 54 -14
17z"/>
<path d="M2802 4698 c-17 -65 -24 -108 -19 -108 7 0 39 141 34 147 -2 2 -9
-16 -15 -39z"/>
<path d="M3807 4695 c-4 -27 -10 -63 -14 -79 -4 -20 -2 -27 5 -22 18 11 32 78
23 116 l-7 35 -7 -50z"/>
<path d="M3312 4650 c0 -14 2 -19 5 -12 2 6 2 18 0 25 -3 6 -5 1 -5 -13z"/>
<path d="M3542 4645 c0 -16 2 -22 5 -12 2 9 2 23 0 30 -3 6 -5 -1 -5 -18z"/>
<path d="M3581 4618 c-5 -14 -22 -35 -37 -47 -30 -23 -16 -28 34 -10 28 10 31
14 25 42 -8 42 -11 44 -22 15z"/>
<path d="M3329 4576 c-16 -35 -16 -36 6 -36 27 0 38 10 26 24 -5 6 -10 19 -12
30 -3 14 -8 9 -20 -18z"/>
<path d="M3397 4573 c-4 -3 -7 -12 -7 -20 0 -15 26 -18 34 -4 7 11 -18 33 -27
24z"/>
<path d="M3232 4555 c-11 -12 -10 -15 3 -15 8 0 15 7 15 15 0 18 -2 18 -18 0z"/>
<path d="M2763 4514 c-6 -27 -10 -51 -8 -52 6 -6 27 78 23 90 -2 6 -9 -11 -15
-38z"/>
<path d="M3110 4535 c0 -9 5 -15 11 -13 6 2 11 8 11 13 0 5 -5 11 -11 13 -6 2
-11 -4 -11 -13z"/>
<path d="M3165 4540 c-3 -5 -1 -10 4 -10 6 0 11 5 11 10 0 6 -2 10 -4 10 -3 0
-8 -4 -11 -10z"/>
<path d="M2980 4500 c0 -5 4 -10 9 -10 6 0 13 5 16 10 3 6 -1 10 -9 10 -9 0
-16 -4 -16 -10z"/>
<path d="M3057 4174 c-18 -10 -39 -13 -57 -9 -33 7 -70 -1 -70 -16 0 -5 12 -9
28 -9 15 0 43 -4 61 -10 24 -7 39 -6 48 1 9 8 13 8 13 0 0 -6 6 -11 14 -11 17
0 58 54 49 64 -11 11 -57 6 -86 -10z"/>
<path d="M2886 4161 c-3 -5 1 -11 9 -15 9 -3 15 0 15 9 0 16 -16 20 -24 6z"/>
<path d="M3915 4150 c3 -5 13 -10 21 -10 8 0 14 5 14 10 0 6 -9 10 -21 10 -11
0 -17 -4 -14 -10z"/>
<path d="M2898 3813 c23 -2 59 -2 80 0 20 2 1 4 -43 4 -44 0 -61 -2 -37 -4z"/>
<path d="M5741 3684 c0 -11 3 -14 6 -6 3 7 2 16 -1 19 -3 4 -6 -2 -5 -13z"/>
<path d="M2165 3580 c-18 -30 20 -91 46 -74 12 7 11 51 -1 59 -7 4 -9 -3 -4
-22 l6 -28 -17 23 c-9 12 -14 26 -10 31 3 5 1 12 -4 15 -5 4 -13 2 -16 -4z"/>
<path d="M5711 3574 c0 -11 3 -14 6 -6 3 7 2 16 -1 19 -3 4 -6 -2 -5 -13z"/>
<path d="M3573 3255 c-3 -9 2 -24 11 -34 9 -10 16 -25 16 -33 0 -9 7 -21 15
-28 8 -7 15 -18 15 -24 0 -6 19 -28 42 -48 43 -36 43 -37 43 -104 0 -45 -4
-69 -12 -71 -7 -3 -13 -16 -13 -29 0 -34 -24 -40 -59 -15 -16 12 -36 21 -43
21 -8 0 -23 9 -33 20 -26 29 -45 25 -110 -22 l-58 -41 -55 11 c-92 19 -82 1
24 -45 130 -56 424 -76 503 -34 23 13 37 67 26 103 -4 12 -30 60 -56 106 -27
45 -49 85 -49 87 0 3 -16 29 -35 58 -34 51 -86 99 -134 125 -29 15 -30 15 -38
-3z"/>
<path d="M5602 3040 c0 -14 2 -19 5 -12 2 6 2 18 0 25 -3 6 -5 1 -5 -13z"/>
<path d="M5582 2936 c-7 -37 -11 -70 -9 -72 9 -9 28 74 25 106 -3 30 -5 24
-16 -34z"/>
<path d="M3126 2924 c-9 -8 -20 -12 -26 -9 -5 3 -10 0 -10 -9 0 -8 19 -23 43
-34 36 -17 69 -21 126 -13 12 2 -49 56 -76 67 -40 17 -38 17 -57 -2z"/>
<path d="M3283 2640 c-31 -13 -29 -16 12 -17 19 -1 39 5 46 13 9 11 7 14 -12
13 -13 0 -34 -4 -46 -9z"/>
<path d="M3125 2630 c-3 -5 -1 -10 4 -10 6 0 11 5 11 10 0 6 -2 10 -4 10 -3 0
-8 -4 -11 -10z"/>
<path d="M5494 1446 c-3 -21 -4 -39 -1 -42 3 -4 9 10 13 30 3 21 4 39 1 42 -3
4 -9 -10 -13 -30z"/>
<path d="M1240 479 c0 -5 5 -7 10 -4 6 3 10 8 10 11 0 2 -4 4 -10 4 -5 0 -10
-5 -10 -11z"/>
</g>
</svg>
